# xmcd CD database file
#
# Track frame offsets:
#	182
#	18127
#	36097
#	48762
#	60197
#	76312
#	93217
#	109535
#	123222
#	139525
#	151480
#	166620
#	183087
#
# Disc length: 2666 seconds
#
# Revision: 6
# Processed by: cddbd v1.5.2PL0 Copyright (c) Steve Scherf et al.
# Submitted via: CDex 1.51
#
DISCID=820a680d
DTITLE=Hirth Martinez - Hirth From Earth
DYEAR=1975
DGENRE=Rock
TTITLE0=Altogether Alone
TTITLE1=Winter Again
TTITLE2=Djinji
TTITLE3=Be Everything
TTITLE4=Comin' Round The Moon
TTITLE5=It
TTITLE6=That's The Way It's Gotta Go
TTITLE7=Silent Movies
TTITLE8=Pity On The Fool
TTITLE9=I Don't Know Why The Hell
TTITLE10=Saturday Night
TTITLE11=Cold Dark Mornin'
TTITLE12=You Are A Star
EXTD=YEAR: 1975
EXTT0=
EXTT1=
EXTT2=
EXTT3=
EXTT4=
EXTT5=
EXTT6=
EXTT7=
EXTT8=
EXTT9=
EXTT10=
EXTT11=
EXTT12=
PLAYORDER=
